<svg xmlns="http://www.w3.org/2000/svg" width="18.673" height="18.673" viewBox="0 0 18.673 18.673">
  <g id="noun-bath-6864592" transform="translate(-3.125 -3.125)">
    <path id="Path_55" data-name="Path 55" d="M21.8,12.15a1.558,1.558,0,0,0-1.556-1.556H5.615V4.914a.545.545,0,0,1,.545-.545h.7a1.241,1.241,0,0,1,1.187.889l-.628.314h0a1.007,1.007,0,0,0-.559.9v.615A1.014,1.014,0,0,0,7.872,8.1h1.71a1.014,1.014,0,0,0,1.012-1.012V6.478a1.007,1.007,0,0,0-.559-.9l-.727-.363A2.488,2.488,0,0,0,6.859,3.125h-.7a1.791,1.791,0,0,0-1.79,1.79v5.68c0,.011.005.02.006.031a1.55,1.55,0,0,0-.629,2.762v2.186A4.377,4.377,0,0,0,5.49,19.059a4.332,4.332,0,0,0,1.036.561l-.3.445A1.115,1.115,0,0,0,7.157,21.8h.685a1.112,1.112,0,0,0,.927-.5l.914-1.371H15.24l.914,1.371a1.112,1.112,0,0,0,.927.5h.685a1.115,1.115,0,0,0,.927-1.733l-.3-.445a4.326,4.326,0,0,0,1.035-.561,4.375,4.375,0,0,0,1.744-3.486V13.387A1.55,1.55,0,0,0,21.8,12.15ZM9.349,6.86H8.1V6.622l.622-.311.622.311ZM4.681,11.839H20.242a.311.311,0,1,1,0,.622H4.681a.311.311,0,0,1,0-.622Zm3.09,8.714H7.4l.43-.645c.091.006.182.023.274.023h.082Zm9.752,0h-.371l-.415-.622h.081c.092,0,.183-.016.275-.023Zm1.162-2.49a3.129,3.129,0,0,1-1.867.622H8.1a3.113,3.113,0,0,1-3.112-3.112V13.706H19.931v1.867a3.127,3.127,0,0,1-1.246,2.49ZM7.482,8.1a.622.622,0,0,1,.622.622v.622a.622.622,0,1,1-1.245,0V8.727A.622.622,0,0,1,7.482,8.1Zm2.49,0a.622.622,0,0,1,.622.622v.622a.622.622,0,1,1-1.245,0V8.727A.622.622,0,0,1,9.972,8.1Z"/>
  </g>
</svg>
