<svg xmlns="http://www.w3.org/2000/svg" width="31.243" height="24.408" viewBox="0 0 31.243 24.408">
  <g id="noun-bungalow-5642082" transform="translate(-0.002 -56.002)">
    <path id="Path_47" data-name="Path 47" d="M336.488,246.834h4.882a.488.488,0,0,0,.488-.488v-5.858a.488.488,0,0,0-.488-.488h-4.882a.488.488,0,0,0-.488.488v5.858A.488.488,0,0,0,336.488,246.834Zm2.929-5.858h1.465v1.953h-1.465Zm0,2.929h1.465v1.953h-1.465Zm-2.441-2.929h1.465v1.953h-1.465Zm0,2.929h1.465v1.953h-1.465Z" transform="translate(-315.495 -172.77)" fill="#eb6753"/>
    <path id="Path_48" data-name="Path 48" d="M80.488,246.834H85.37a.488.488,0,0,0,.488-.488v-5.858A.488.488,0,0,0,85.37,240H80.488a.488.488,0,0,0-.488.488v5.858A.488.488,0,0,0,80.488,246.834Zm2.929-5.858h1.465v1.953H83.417Zm0,2.929h1.465v1.953H83.417Zm-2.441-2.929h1.465v1.953H80.976Zm0,2.929h1.465v1.953H80.976Z" transform="translate(-75.116 -172.77)" fill="#eb6753"/>
    <path id="Path_49" data-name="Path 49" d="M352.488,96a.488.488,0,0,0-.488.488v.488a.488.488,0,1,0,.976,0v-.488A.488.488,0,0,0,352.488,96Z" transform="translate(-330.518 -37.557)" fill="#eb6753"/>
    <path id="Path_50" data-name="Path 50" d="M144.488,96a.488.488,0,0,0-.488.488v.488a.488.488,0,1,0,.976,0v-.488A.488.488,0,0,0,144.488,96Z" transform="translate(-135.211 -37.557)" fill="#eb6753"/>
    <path id="Path_51" data-name="Path 51" d="M31.217,65.113l-2.441-6.834a.488.488,0,0,0-.459-.324H24.411a.489.489,0,0,0-.2-.391L22.263,56.1a.489.489,0,0,0-.586,0l-1.953,1.465a.489.489,0,0,0-.2.391H11.718a.489.489,0,0,0-.2-.391L9.57,56.1a.489.489,0,0,0-.586,0L7.032,57.564a.489.489,0,0,0-.2.391H2.931a.487.487,0,0,0-.459.324L.031,65.113a.488.488,0,0,0,.459.652H1.955V79.923a.488.488,0,0,0,.488.488H28.8a.488.488,0,0,0,.488-.488V65.766h1.465a.488.488,0,0,0,.459-.652ZM20.505,58.2l1.465-1.1,1.465,1.1v2.685H20.505Zm-12.692,0,1.465-1.1,1.465,1.1v2.685H7.813ZM9.278,77.97v1.465H2.931V76.506h7.811v.976H9.766A.488.488,0,0,0,9.278,77.97Zm11.716,1.465H10.254v-.976h10.74Zm-1.465-2.929v.976H11.718v-.976Zm-5.858-.976V68.207h3.905v7.323Zm14.645,3.905H21.97V77.97a.488.488,0,0,0-.488-.488h-.976v-.976h7.811Zm0-3.905H18.553V67.718a.488.488,0,0,0-.488-.488H13.183a.488.488,0,0,0-.488.488v7.811H2.931V65.766H28.316ZM1.183,64.789l2.092-5.858H6.837v2.441a.488.488,0,0,0,.488.488H11.23a.488.488,0,0,0,.488-.488V58.931h7.811v2.441a.488.488,0,0,0,.488.488h3.905a.488.488,0,0,0,.488-.488V58.931h3.561l2.092,5.858Z" transform="translate(0 0)" fill="#eb6753"/>
    <circle id="Ellipse_21" data-name="Ellipse 21" cx="0.621" cy="0.621" r="0.621" transform="translate(13.864 70.901)" fill="#eb6753"/>
  </g>
</svg>
