<svg xmlns="http://www.w3.org/2000/svg" width="57.077" height="59.575" viewBox="0 0 57.077 59.575">
  <g id="noun-realtor-1183860" transform="translate(-2.923 -0.85)">
    <path id="Path_98847" data-name="Path 98847" d="M78.038,20.713h.048c2.975.679,2.975,1.921,2.975,2.333a2.391,2.391,0,0,1-2.636,2.29A2.636,2.636,0,0,1,76,23.718,1.517,1.517,0,0,0,73.2,24.875a5.647,5.647,0,0,0,3.714,3.266V29.2a1.515,1.515,0,1,0,3.03,0v-1a5.241,5.241,0,0,0,4.151-5.138c0-1.515-.685-4.205-5.278-5.272h-.048c-2.975-.679-2.975-1.921-2.975-2.333a2.391,2.391,0,0,1,2.636-2.29,2.636,2.636,0,0,1,2.424,1.618,1.515,1.515,0,0,0,2.793-1.169,5.647,5.647,0,0,0-3.7-3.278V9.285a1.515,1.515,0,1,0-3.03,0v1.048a5.241,5.241,0,0,0-4.151,5.138C72.76,16.956,73.451,19.646,78.038,20.713Z" transform="translate(-27.521 -2.727)"/>
    <path id="Path_98848" data-name="Path 98848" d="M19,14.992A7.071,7.071,0,1,0,11.93,7.915,7.071,7.071,0,0,0,19,14.992ZM19,3.88a4.048,4.048,0,1,1,0-.006Z" transform="translate(-3.549 0)"/>
    <path id="Path_98849" data-name="Path 98849" d="M4.466,44.982a5.89,5.89,0,0,0,2.987,4.5L9.877,67.262a3.533,3.533,0,0,0,3.508,3.133h4.029a3.526,3.526,0,0,0,3.514-3.133l1.212-10.907,2.387-18.238,2.678,2.26a4.241,4.241,0,0,0,5.332.061l8.035-6.326a4.3,4.3,0,0,0,1.085-5.629,4.241,4.241,0,0,0-6.247-1.121L29.958,31.64,24.5,27.119a4.241,4.241,0,0,0-2.7-.969H19.33a1.818,1.818,0,0,0-1.412.66l-2.49,3.114-2.484-3.1a1.757,1.757,0,0,0-1.388-.673H9.635a6.708,6.708,0,0,0-6.665,7.5ZM6.89,30.44a3.636,3.636,0,0,1,2.745-1.212h1.3l2.8,3.5a2.145,2.145,0,0,0,3.351,0l2.805-3.5h1.921a1.212,1.212,0,0,1,.77.279L29,34.8a1.515,1.515,0,0,0,1.9,0l6.386-5.029a1.2,1.2,0,0,1,1.794.345,1.291,1.291,0,0,1-.364,1.612l-8.047,6.326a1.212,1.212,0,0,1-1.527,0L24.3,34.069a1.515,1.515,0,0,0-2.466.969L19.106,56.01,17.894,66.917a.5.5,0,0,1-.5.442H13.386a.515.515,0,0,1-.5-.479L10.338,48.254a1.515,1.515,0,0,0-.982-1.212,2.9,2.9,0,0,1-1.89-2.424l-1.5-11.343a3.636,3.636,0,0,1,.909-2.86Z" transform="translate(0 -9.97)"/>
    <path id="Path_98850" data-name="Path 98850" d="M40.114,58.509A1.535,1.535,0,1,0,42,60.933l1.654-1.321V74.966h-2.6a1.515,1.515,0,1,0,0,3.03H72.889a1.515,1.515,0,0,0,0-3.03h-2.6V59.582l1.636,1.351a1.543,1.543,0,0,0,1.909-2.424L57.917,45.785a1.515,1.515,0,0,0-1.89,0ZM59.5,74.936H54.445V66.453H59.5ZM67.26,57.164v17.8H62.534V64.938a1.515,1.515,0,0,0-1.515-1.515H52.93a1.515,1.515,0,0,0-1.515,1.515V74.966H46.689v-17.8l10.3-8.21Z" transform="translate(-14.422 -17.577)"/>
  </g>
</svg>
