<svg xmlns="http://www.w3.org/2000/svg" width="21.897" height="16.422" viewBox="0 0 21.897 16.422">
  <path id="Path_59" data-name="Path 59" d="M17.335,18.6H4.562v.912a.912.912,0,0,1-.912.912H2.737a.912.912,0,0,1-.912-.912V12.667L.691,12.384A.912.912,0,0,1,0,11.5v-.656a.456.456,0,0,1,.456-.456H1.825L4.088,5.106A1.825,1.825,0,0,1,5.765,4H16.132a1.825,1.825,0,0,1,1.677,1.106l2.263,5.281H21.44a.456.456,0,0,1,.456.456V11.5a.912.912,0,0,1-.691.885l-1.134.283V19.51a.912.912,0,0,1-.912.912h-.912a.912.912,0,0,1-.912-.912Zm.912-1.825V12.211H3.649v4.562ZM5,10.387H16.9a.912.912,0,0,0,.847-1.251L16.422,5.825H5.474L4.15,9.135A.912.912,0,0,0,5,10.387Zm-.435,2.737q3.171,0,4.275,2.066h0a.456.456,0,0,1-.4.671H5.474a.912.912,0,0,1-.912-.912Zm12.773,0v1.825a.912.912,0,0,1-.912.912H13.462a.456.456,0,0,1-.4-.671h0Q14.164,13.124,17.335,13.124Z" transform="translate(0 -4)"/>
</svg>
