<svg xmlns="http://www.w3.org/2000/svg" width="42.43" height="57.189" viewBox="0 0 42.43 57.189">
  <g id="noun-housing-contracts-3404766" transform="translate(-9 -1)">
    <g id="Group_39598" data-name="Group 39598" transform="translate(9 1)">
      <path id="Path_98869" data-name="Path 98869" d="M50.508,1H20.991a.918.918,0,0,0-.652.27L9.27,12.339a.92.92,0,0,0-.27.652V57.266a.922.922,0,0,0,.922.922H50.508a.922.922,0,0,0,.922-.922V1.922A.922.922,0,0,0,50.508,1ZM20.069,4.149v7.92h-7.92ZM49.586,56.344H10.845V13.914H20.991a.922.922,0,0,0,.922-.922V2.845H49.586Z" transform="translate(-9 -1)"/>
      <path id="Path_98870" data-name="Path 98870" d="M22.513,41.208l-10.146,8.3,1.168,1.429,2.183-1.787v7.529a.922.922,0,0,0,.922.922H29.554a.922.922,0,0,0,.922-.922V49.152l2.183,1.787,1.168-1.429-10.146-8.3A.923.923,0,0,0,22.513,41.208Zm2.429,14.55h-3.69v-3.69h3.69Zm3.69,0H26.787V51.146a.922.922,0,0,0-.922-.922H20.33a.922.922,0,0,0-.922.922v4.612H17.563V47.642L23.1,43.114l5.534,4.528Z" transform="translate(-9.261 -4.104)"/>
      <rect id="Rectangle_17578" data-name="Rectangle 17578" width="2.204" height="2.204" transform="translate(14.327 4.01)"/>
      <rect id="Rectangle_17579" data-name="Rectangle 17579" width="19.838" height="2.204" transform="translate(18.736 4.01)"/>
      <rect id="Rectangle_17580" data-name="Rectangle 17580" width="2.204" height="1.102" transform="translate(14.327 7.316)"/>
      <rect id="Rectangle_17581" data-name="Rectangle 17581" width="19.838" height="1.102" transform="translate(18.736 7.316)"/>
      <rect id="Rectangle_17582" data-name="Rectangle 17582" width="2.204" height="1.102" transform="translate(14.327 11.725)"/>
      <rect id="Rectangle_17583" data-name="Rectangle 17583" width="19.838" height="1.102" transform="translate(18.736 11.725)"/>
      <rect id="Rectangle_17584" data-name="Rectangle 17584" width="1.102" height="2.204" transform="translate(37.471 23.848)"/>
      <rect id="Rectangle_17585" data-name="Rectangle 17585" width="11.021" height="2.204" transform="translate(24.246 23.848)"/>
      <rect id="Rectangle_17586" data-name="Rectangle 17586" width="1.102" height="3.306" transform="translate(24.246 19.439)"/>
      <rect id="Rectangle_17587" data-name="Rectangle 17587" width="12.123" height="3.306" transform="translate(26.45 19.439)"/>
      <rect id="Rectangle_17588" data-name="Rectangle 17588" width="2.204" height="3.306" transform="translate(16.531 32.664)"/>
      <rect id="Rectangle_17589" data-name="Rectangle 17589" width="9.919" height="3.306" transform="translate(4.408 32.664)"/>
      <rect id="Rectangle_17590" data-name="Rectangle 17590" width="1.102" height="2.204" transform="translate(4.408 29.358)"/>
      <rect id="Rectangle_17591" data-name="Rectangle 17591" width="12.123" height="2.204" transform="translate(6.613 29.358)"/>
      <path id="Path_98871" data-name="Path 98871" d="M45.3,49H37.922a.922.922,0,0,0-.922.922V57.3a.922.922,0,0,0,.922.922H45.3a.922.922,0,0,0,.922-.922V49.922A.922.922,0,0,0,45.3,49Zm-3.69,7.379H38.845V50.845h4.042L41.5,53.623l-.963-1.444L39,53.2l1.845,2.767a.923.923,0,0,0,.767.41l.057,0a.922.922,0,0,0,.767-.508l1.943-3.884v4.394Z" transform="translate(-11.173 -4.725)"/>
      <path id="Path_98872" data-name="Path 98872" d="M45.3,37H37.922a.922.922,0,0,0-.922.922V45.3a.922.922,0,0,0,.922.922H45.3a.922.922,0,0,0,.922-.922V37.922A.922.922,0,0,0,45.3,37Zm-3.69,7.379H38.845V38.845h4.042L41.5,41.623l-.963-1.444L39,41.2l1.845,2.767a.923.923,0,0,0,.767.41l.057,0a.922.922,0,0,0,.767-.508l1.943-3.884v4.394Z" transform="translate(-11.173 -3.794)"/>
    </g>
  </g>
</svg>
