<svg xmlns="http://www.w3.org/2000/svg" width="24.76" height="26.429" viewBox="0 0 24.76 26.429">
  <g id="noun-office-6941456" transform="translate(-5.872 -2.902)">
    <path id="Path_45" data-name="Path 45" d="M20.338,10.918h8.884a.561.561,0,0,1,.561.561v16.73h.287a.561.561,0,1,1,0,1.122H6.974a.561.561,0,1,1,0-1.122H7.38V6.226H6.433a.561.561,0,0,1-.561-.561v-2.2A.561.561,0,0,1,6.433,2.9H21.286a.561.561,0,0,1,.561.561v2.2a.561.561,0,0,1-.561.561h-.947ZM26.114,24.46a.561.561,0,0,1,1.122,0V25a.561.561,0,0,1-1.122,0Zm-2.314,0a.561.561,0,1,1,1.122,0V25A.561.561,0,1,1,23.8,25Zm2.315-9.21a.561.561,0,1,1,1.122,0v7.729a.561.561,0,0,1-1.122,0Zm-2.314,0a.561.561,0,1,1,1.122,0v7.729a.561.561,0,0,1-1.122,0Zm-2.315,9.21a.561.561,0,1,1,1.122,0V25a.561.561,0,1,1-1.122,0Zm0-9.21a.561.561,0,1,1,1.122,0v7.729a.561.561,0,1,1-1.122,0Zm-6.3,5.344h2.2a.561.561,0,0,1,.561.561v2.2a.561.561,0,0,1-.561.561h-2.2a.561.561,0,0,1-.561-.561v-2.2A.561.561,0,0,1,15.186,20.594Zm1.642,1.122H15.747V22.8h1.081Zm-6.495-1.122h2.2a.561.561,0,0,1,.561.561v2.2a.561.561,0,0,1-.561.561h-2.2a.561.561,0,0,1-.561-.561v-2.2A.561.561,0,0,1,10.333,20.594Zm1.641,1.122h-1.08V22.8h1.08ZM15.186,16.3h2.2a.561.561,0,0,1,.561.561v2.2a.561.561,0,0,1-.561.561h-2.2a.561.561,0,0,1-.561-.561v-2.2A.561.561,0,0,1,15.186,16.3Zm1.642,1.122H15.747V18.5h1.081ZM10.334,16.3h2.2a.561.561,0,0,1,.561.561v2.2a.561.561,0,0,1-.561.561h-2.2a.561.561,0,0,1-.561-.561v-2.2A.561.561,0,0,1,10.334,16.3Zm1.641,1.122h-1.08V18.5h1.08ZM15.186,12h2.2a.561.561,0,0,1,.561.561v2.2a.561.561,0,0,1-.561.561h-2.2a.561.561,0,0,1-.561-.561v-2.2A.561.561,0,0,1,15.186,12Zm1.642,1.122H15.748V14.2h1.081ZM10.334,12h2.2a.561.561,0,0,1,.561.561v2.2a.561.561,0,0,1-.561.561h-2.2a.561.561,0,0,1-.561-.561v-2.2A.561.561,0,0,1,10.334,12Zm1.641,1.122h-1.08V14.2h1.08ZM15.187,7.7h2.2a.561.561,0,0,1,.561.561v2.2a.561.561,0,0,1-.561.561h-2.2a.561.561,0,0,1-.561-.561v-2.2A.561.561,0,0,1,15.187,7.7Zm1.642,1.122H15.748V9.9h1.081ZM10.334,7.7h2.2a.561.561,0,0,1,.561.561v2.2a.561.561,0,0,1-.561.561h-2.2a.561.561,0,0,1-.561-.561v-2.2A.561.561,0,0,1,10.334,7.7Zm1.641,1.122h-1.08V9.9h1.08ZM8.5,6.229V28.212H19.218V6.229Zm12.222-2.2H7v1.08h13.73ZM20.34,28.212h8.323V12.043H20.34Z" fill="#eb6753"/>
  </g>
</svg>
