<svg xmlns="http://www.w3.org/2000/svg" width="53.087" height="52.962" viewBox="0 0 53.087 52.962">
  <g id="noun-home-key-3627006" transform="translate(-15.804 -69)">
    <g id="Group_39597" data-name="Group 39597" transform="translate(15.804 69)">
      <path id="Path_98863" data-name="Path 98863" d="M762,770.308a3.2,3.2,0,1,1,3.2-3.2A3.208,3.208,0,0,1,762,770.308Zm0-4.017a.813.813,0,1,0,.813.813A.814.814,0,0,0,762,766.291Z" transform="translate(-717.504 -722.361)"/>
      <path id="Path_98864" data-name="Path 98864" d="M403.708,419.449a10.567,10.567,0,0,1-7.52-3.114,11.309,11.309,0,0,1-.962-1.1c-.036-.048-.072-.09-.1-.137a10.619,10.619,0,0,1-1.351-10.09L380.73,391.969a1.489,1.489,0,0,1-.43-1.046v-4.047a1.48,1.48,0,0,1,1.476-1.477h4.047a1.49,1.49,0,0,1,1.046.43l2.272,2.272-.084,1.435,1.435-.084,2.349,2.349-.084,1.435,1.435-.084,2.349,2.349-.084,1.435,1.435-.084,2.014,2.014a10.646,10.646,0,0,1,8.225.257c.06.03.126.06.191.09a10.646,10.646,0,0,1-4.615,20.234Zm-21.017-28.9L396.643,404.5l-.377.765-.036.072a8.248,8.248,0,0,0,.825,8.351c.024.036.054.072.078.108a8.4,8.4,0,0,0,.747.855,8.242,8.242,0,1,0,9.4-13.258,1.531,1.531,0,0,0-.143-.066,8.243,8.243,0,0,0-6.9.018c-.024.012-.048.024-.078.036l-.765.377-2.433-2.445-3.043.173.173-3.043-.831-.831-3.043.173.173-3.043-.831-.831-3.043.173.173-3.043-1.249-1.249h-2.75Z" transform="translate(-361.629 -366.487)"/>
      <path id="Path_98865" data-name="Path 98865" d="M104.915,118.22H73.676V93.67H69.223a1.261,1.261,0,0,1-.831-2.212L94.5,69l26.11,22.458a1.261,1.261,0,0,1-.831,2.212h-4.453v11.047l-1.71-.819a1.526,1.526,0,0,0-.143-.066,8.243,8.243,0,0,0-6.9.018c-.024.012-.048.024-.078.036l-.765.377-2.439-2.439-3.043.173.173-3.043-.831-.831-3.043.173.173-3.043-.831-.831-3.043.173.173-3.043L91.77,90.3h-2.75v2.75l13.952,13.952-.377.765-.036.072a8.248,8.248,0,0,0,.825,8.351c.024.036.054.072.078.108Zm-28.848-2.391H100.4a10.621,10.621,0,0,1-.293-8.3L87.06,94.483a1.489,1.489,0,0,1-.43-1.046V89.39a1.48,1.48,0,0,1,1.476-1.476h4.047a1.489,1.489,0,0,1,1.046.43l2.272,2.272-.084,1.435,1.435-.084,2.349,2.349-.084,1.435,1.435-.084,2.349,2.349-.084,1.435,1.435-.084,2.014,2.014a10.592,10.592,0,0,1,6.7-.3v-9.8h3.8L94.5,72.15,72.265,91.279h3.8v24.55Z" transform="translate(-67.959 -69)"/>
      <path id="Path_98866" data-name="Path 98866" d="M394.585,560.877H380V541.264a1.467,1.467,0,0,1,1.464-1.465h5.027l8.937,8.937-1.692,1.692-8.237-8.237h-3.108v16.3h12.194Z" transform="translate(-361.347 -511.657)"/>
      <path id="Path_98867" data-name="Path 98867" d="M702.337,173.374l-7.837-6.749V160.7a1.2,1.2,0,0,1,1.2-1.2h5.434a1.2,1.2,0,0,1,1.2,1.2Zm-5.446-7.843,3.055,2.63v-6.271h-3.055Z" transform="translate(-657.048 -154.09)"/>
      <path id="Path_98868" data-name="Path 98868" d="M449.923,695.145a1.423,1.423,0,1,1,1.423-1.423A1.426,1.426,0,0,1,449.923,695.145Zm0-2.391a.968.968,0,1,0,.968.968A.972.972,0,0,0,449.923,692.754Z" transform="translate(-425.753 -655.041)"/>
    </g>
  </g>
</svg>
