<svg xmlns="http://www.w3.org/2000/svg" width="51.902" height="59.714" viewBox="0 0 51.902 59.714">
  <g id="noun-sell-real-estate-6271343" transform="translate(-9.605 -5.805)">
    <g id="Group_39595" data-name="Group 39595" transform="translate(9.605 5.805)">
      <path id="Path_98851" data-name="Path 98851" d="M12.423,28.17a1.32,1.32,0,0,0,.937-.388l2.251-2.251V39.343a3.341,3.341,0,0,0,3.338,3.337H45.325a3.341,3.341,0,0,0,3.338-3.337V31.42c.039-.015.078-.026.117-.042a3.816,3.816,0,0,0,2.376-3.76,1.191,1.191,0,0,1,.352-.915,1.177,1.177,0,0,1,.915-.352A3.857,3.857,0,0,0,55.2,19.638a1.207,1.207,0,0,1,0-1.791,3.857,3.857,0,0,0-2.781-6.715,1.178,1.178,0,0,1-.915-.352,1.191,1.191,0,0,1-.352-.915A3.857,3.857,0,0,0,44.44,7.084a1.234,1.234,0,0,1-1.791,0A3.851,3.851,0,0,0,35.978,9.1l-2.9-2.9a1.325,1.325,0,0,0-1.874,0L23.844,13.55V8.594a1.325,1.325,0,0,0-1.325-1.325H16.936a1.325,1.325,0,0,0-1.325,1.325V21.783l-4.125,4.125a1.325,1.325,0,0,0,.937,2.262ZM29.132,40.03V32.359h5.6V40.03Zm16.193,0H37.386v-9a1.319,1.319,0,0,0-.022-.219,3.924,3.924,0,0,0,.946.564,3.815,3.815,0,0,0,4.339-.979,1.207,1.207,0,0,1,1.791,0,3.866,3.866,0,0,0,1.572,1.054v7.889A.688.688,0,0,1,45.325,40.03ZM38.582,9.73a1.206,1.206,0,0,1,2.1-.87,3.857,3.857,0,0,0,5.726,0,1.206,1.206,0,0,1,2.1.87,3.857,3.857,0,0,0,4.049,4.049,1.206,1.206,0,0,1,.87,2.1,3.857,3.857,0,0,0,0,5.726,1.206,1.206,0,0,1-.87,2.1,3.857,3.857,0,0,0-4.049,4.049,1.206,1.206,0,0,1-2.1.87,3.861,3.861,0,0,0-2.862-1.272h0a3.864,3.864,0,0,0-2.863,1.272,1.206,1.206,0,0,1-2.1-.87,3.857,3.857,0,0,0-4.049-4.049,1.206,1.206,0,0,1-.87-2.1,3.857,3.857,0,0,0,0-5.726,1.206,1.206,0,0,1,.87-2.1A3.857,3.857,0,0,0,38.582,9.73Zm-8.715,10.8a2.272,2.272,0,0,1,2.27-2.27c.016,0,.031,0,.047,0a1.212,1.212,0,0,1-.3,1.384A3.824,3.824,0,0,0,30.619,22.2,2.256,2.256,0,0,1,29.867,20.529Zm2.27-11.524,2.137,2.137a3.8,3.8,0,0,0-3.366,2.366,3.848,3.848,0,0,0-.21,2.316,4.917,4.917,0,0,0,1.27,9.616,3.828,3.828,0,0,0,2.7.912,1.176,1.176,0,0,1,.915.352,1.191,1.191,0,0,1,.352.915,3.846,3.846,0,0,0,.529,2.159,1.31,1.31,0,0,0-.4-.069H27.806a1.325,1.325,0,0,0-1.325,1.325v9H18.948a.688.688,0,0,1-.687-.687V22.88ZM18.261,9.92h2.932V16.2l-2.932,2.932Z" transform="translate(-10.109 -5.805)"/>
      <path id="Path_98852" data-name="Path 98852" d="M55.977,21.6a2.814,2.814,0,0,0,.89.6,2.766,2.766,0,0,0,1.093.22h.7a1.4,1.4,0,0,1,.554.111,1.453,1.453,0,0,1,.774.774,1.448,1.448,0,0,1,0,1.111,1.464,1.464,0,0,1-.774.772,1.407,1.407,0,0,1-.554.111q-.108,0-.422-.016t-.741-.048q-.419-.032-.869-.08c-.292-.031-.562-.068-.843-.117l-.277-.048-.1,1.581.22.04c.272.05.573.092.893.125s.621.058.914.078l.237.014v1.284h1.474v-1.3a2.725,2.725,0,0,0,.681-.192,3.037,3.037,0,0,0,1.6-1.6,2.994,2.994,0,0,0,0-2.334,3.039,3.039,0,0,0-1.6-1.6,2.923,2.923,0,0,0-1.167-.237h-.7a1.238,1.238,0,1,1,0-2.475q.148,0,.483.015t.756.048q.413.031.833.079c.273.031.512.067.753.117l.283.057.1-1.593-.224-.038c-.228-.038-.5-.074-.8-.108s-.6-.059-.884-.078l-.108-.006V15.394H57.675v1.441a2.734,2.734,0,0,0-.808.206,2.773,2.773,0,0,0-1.487,1.487,2.823,2.823,0,0,0,0,2.186A2.816,2.816,0,0,0,55.977,21.6Z" transform="translate(-24.976 -9.04)"/>
      <path id="Path_98853" data-name="Path 98853" d="M10.93,84.363H44.317a5.718,5.718,0,0,0,4.069-1.686L59.854,71.21a5.657,5.657,0,0,0,0-7.992,5.334,5.334,0,0,0-7.545,0L46.277,69.25a7.851,7.851,0,0,1-1.643,1.25,4.969,4.969,0,0,0-4.81-6.284H10.93a1.325,1.325,0,0,0-1.325,1.325v17.5A1.325,1.325,0,0,0,10.93,84.363ZM42.161,69.2a2.339,2.339,0,0,1-2.337,2.337H32.145a1.325,1.325,0,1,0,0,2.65h7.679a4.991,4.991,0,0,0,.61-.041,1.316,1.316,0,0,0,.313.041,10.4,10.4,0,0,0,7.4-3.067l6.033-6.032a2.685,2.685,0,0,1,3.8,0,3.005,3.005,0,0,1,0,4.244L46.513,80.8a3.085,3.085,0,0,1-2.2.909H21.207V66.867H39.824A2.339,2.339,0,0,1,42.161,69.2Zm-29.9-2.337h6.3V81.712h-6.3V66.867Z" transform="translate(-9.605 -24.649)"/>
    </g>
  </g>
</svg>
