<svg xmlns="http://www.w3.org/2000/svg" width="57.793" height="58.277" viewBox="0 0 57.793 58.277">
  <g id="noun-real-estate-3627008" transform="translate(-68.379 -64.6)">
    <g id="Group_39596" data-name="Group 39596" transform="translate(68.379 64.6)">
      <path id="Path_98854" data-name="Path 98854" d="M518.783,584.2c-2.227,0-4.552-.013-5.783-.026l.019-2.605c1.576.013,6.923.046,9.587,0a1.627,1.627,0,0,0,1.348-.768l.033-.059a1.611,1.611,0,0,0-.02-1.726l2.182-1.42a4.213,4.213,0,0,1,.052,4.52l-.033.059a4.21,4.21,0,0,1-3.51,1.993C521.623,584.2,520.223,584.2,518.783,584.2Z" transform="translate(-484.042 -544.189)"/>
      <path id="Path_98855" data-name="Path 98855" d="M318.389,823.978a1.889,1.889,0,1,1,1.889-1.889A1.89,1.89,0,0,1,318.389,823.978Zm0-2.605a.716.716,0,1,0,.716.716A.714.714,0,0,0,318.389,821.372Z" transform="translate(-300.34 -770.989)"/>
      <path id="Path_98856" data-name="Path 98856" d="M395.448,463.751l-1.648-2.019L397.141,459a5.571,5.571,0,0,1,3.712-1.257l8.467.267a9.289,9.289,0,0,0,6.637-2.521l4.878-4.6a.282.282,0,0,1,.046-.039l5.966-7.047.02-.02a.985.985,0,0,0,.261-.671,1,1,0,0,0-.267-.677c-.573-.619-.834-.716-1.381-.716a2.486,2.486,0,0,0-.534.059,4.315,4.315,0,0,0-2.084,1.478c-.072.072-.15.15-.221.228l-3.185,3.393a3.328,3.328,0,0,1-.723.554l-4.676,2.677h-1.146l-.384-.573a1.608,1.608,0,0,0-1.342-.716H407.49v-2.605h3.686a4.233,4.233,0,0,1,2.709.983l3.543-2.026a.7.7,0,0,0,.156-.117l3.191-3.4c.078-.078.156-.156.228-.234a6.681,6.681,0,0,1,3.374-2.188,5.28,5.28,0,0,1,1.1-.124,4.124,4.124,0,0,1,3.289,1.544,3.576,3.576,0,0,1,.964,2.455,3.616,3.616,0,0,1-.925,2.41l-5.972,7.053-.013.02c-.065.065-.13.137-.2.2l-4.878,4.6a11.942,11.942,0,0,1-8.506,3.23l-8.467-.267a3,3,0,0,0-1.98.671Z" transform="translate(-372.606 -414.709)"/>
      <path id="Path_98857" data-name="Path 98857" d="M599.486,394.473a1.986,1.986,0,1,1,1.987-1.986A1.99,1.99,0,0,1,599.486,394.473Zm0-2.605a.619.619,0,1,0,.619.619A.623.623,0,0,0,599.486,391.868Z" transform="translate(-563.039 -369.274)"/>
      <path id="Path_98858" data-name="Path 98858" d="M535.915,171.2a8.384,8.384,0,0,1-4.005-1.023,8.2,8.2,0,0,1-2.488-2.078,8.37,8.37,0,0,1,1.224-11.762,8.05,8.05,0,0,1,.938-.658l.046-.026c.026-.013.052-.033.078-.046a8.243,8.243,0,0,1,1.329-.625,8.335,8.335,0,0,1,6.428.274l10.505-8.525a1.494,1.494,0,0,1,1.094-.332h.013l3.009.313a1.53,1.53,0,0,1,1.023.554,1.484,1.484,0,0,1,.326,1.107l-.313,3a1.508,1.508,0,0,1-.547,1.016l-2.013,1.635-.788-.13-.039.795-2.214,1.8-.788-.13-.039.8-2.214,1.8-.788-.13-.039.795-1.589,1.309a8.342,8.342,0,0,1-.938,6.148c-.026.039-.046.078-.072.117l-.02.026a8.389,8.389,0,0,1-7.119,3.979ZM532.932,157.9a5.755,5.755,0,1,0,7.887,7.946l.007-.013c.013-.026.033-.052.046-.078l.007-.007a5.763,5.763,0,0,0,.482-4.794.324.324,0,0,0-.02-.046l-.319-.873,2.084-1.693.117-2.553,2.52.41.4-.326.117-2.553,2.521.41.4-.326.117-2.553,2.521.41.749-.606.156-1.472-1.472-.156L539.705,158.4l-.788-.495-.046-.026a5.754,5.754,0,0,0-5.855-.033.362.362,0,0,0-.052.033Zm19.91-9.8Z" transform="translate(-497.65 -141.06)"/>
      <path id="Path_98859" data-name="Path 98859" d="M94.491,592.81A2.568,2.568,0,0,1,92.615,592L78.156,576.488a2.526,2.526,0,0,1-.684-1.837,2.556,2.556,0,0,1,.814-1.785l5.269-4.911a2.526,2.526,0,0,1,1.837-.684,2.556,2.556,0,0,1,1.785.814l14.459,15.507a2.568,2.568,0,0,1-.124,3.621h0l-5.269,4.911A2.586,2.586,0,0,1,94.491,592.81ZM80.1,574.749l14.4,15.442,5.2-4.852L85.3,569.9Zm19.63,10.557Z" transform="translate(-76.879 -534.532)"/>
      <rect id="Rectangle_17577" data-name="Rectangle 17577" width="2.605" height="2.208" transform="translate(4.261 25.687)"/>
      <path id="Path_98860" data-name="Path 98860" d="M72.64,103.84V94.82h2.605v3.048a2.513,2.513,0,0,1,1.641-.521,2.556,2.556,0,0,1,1.785.814l.606.651L82.5,95.569l.026-.026c.046-.046.1-.085.143-.13l.007-.007a.341.341,0,0,0,.072-.065l.007-.007a8.59,8.59,0,0,1,1.277-.879,10.358,10.358,0,0,1,2.7-1.088,10.622,10.622,0,0,1,2.612-.319,10.892,10.892,0,0,1,3.914.729l5.288,2.032a7.72,7.72,0,0,0,2.078.28h1.335V93.3a8.366,8.366,0,0,1-.586-13.423c.169-.137.345-.267.528-.4L88.6,68.032,73.109,81.364h2.143v6.331H72.647V83.969H69.729a1.35,1.35,0,0,1-.892-2.364l.013-.013L88.61,64.6l18.132,15.6-2.084.762a6.119,6.119,0,0,0-.912.43.264.264,0,0,1-.059.033l-.026.013a5.758,5.758,0,0,0,.228,9.978l.677.371v6.9h-3.934a10.206,10.206,0,0,1-2.84-.4l-.059-.013-5.4-2.071a8.29,8.29,0,0,0-4.963-.313,7.779,7.779,0,0,0-2.032.821,6.526,6.526,0,0,0-.9.619c-.013.013-.026.02-.039.033-.033.026-.065.059-.1.085l-5.08,5.106-2.423-2.6Z" transform="translate(-68.379 -64.6)"/>
      <path id="Path_98861" data-name="Path 98861" d="M282.1,402.677V391.072a1.773,1.773,0,0,1,1.772-1.772h9.059a1.773,1.773,0,0,1,1.771,1.772v9.678l-2.573-.99a8.29,8.29,0,0,0-4.963-.313,7.777,7.777,0,0,0-2.032.821,6.525,6.525,0,0,0-.9.619Zm2.605-10.772v5.66a10.776,10.776,0,0,1,1.837-.645,10.623,10.623,0,0,1,2.612-.319,11,11,0,0,1,2.95.4V391.9h-7.4Z" transform="translate(-268.181 -368.153)"/>
      <path id="Path_98862" data-name="Path 98862" d="M504.276,140.358,497.6,134.62v-5.914l1.309-.007h5.36l.007,1.309Zm-4.064-6.936,1.465,1.257v-3.374h-1.465Z" transform="translate(-469.645 -124.525)"/>
    </g>
  </g>
</svg>
