<svg xmlns="http://www.w3.org/2000/svg" width="19.135" height="16.2" viewBox="0 0 19.135 16.2">
  <path id="Path_98784" data-name="Path 98784" d="M17.094,7.146a6.714,6.714,0,0,1,1.051-.32,1.1,1.1,0,0,1,0,.122C17.91,9.392,16.891,15.4,16.367,18.2c-.123.655-.217.967-.849.6-.417-.245-.793-.553-1.2-.818C13,17.112,11.1,15.819,11.256,15.9c-1.3-.859-.758-1.386-.03-2.087.118-.114.24-.232.361-.357.054-.056.316-.3.687-.644a43.351,43.351,0,0,0,3.542-3.486.313.313,0,0,0-.071-.271.353.353,0,0,0-.318-.031q-.2.046-6.473,4.279a2.913,2.913,0,0,1-1.664.615l0,0c-.655-.231-1.308-.43-1.964-.63-.431-.131-.864-.263-1.3-.4l-.308-.1q6.79-2.958,9.053-3.9C14.968,7.971,16.27,7.446,17.094,7.146Zm2.423-1.928a1.823,1.823,0,0,0-.725-.346,2.195,2.195,0,0,0-.534-.061,5.8,5.8,0,0,0-1.846.455c-.875.317-2.219.861-4.406,1.771Q9.693,8,2.8,11a4.789,4.789,0,0,0-1.065.561,1.671,1.671,0,0,0-.716,1.109,1.438,1.438,0,0,0,.315,1.1,2.017,2.017,0,0,0,.7.524,8.625,8.625,0,0,0,1.094.4c.573.18,1.145.363,1.719.539A17.193,17.193,0,0,1,9.7,17.287c1.181.778,2.34,1.591,3.523,2.366.432.283.835.608,1.281.869A3.055,3.055,0,0,0,16.364,21c1.138-.1,1.731-1.152,1.969-2.43.522-2.791,1.558-8.887,1.8-11.433a3.761,3.761,0,0,0-.036-.885A1.659,1.659,0,0,0,19.517,5.218Z" transform="translate(-1.011 -4.811)" fill="#fff"/>
</svg>
