<svg xmlns="http://www.w3.org/2000/svg" width="22" height="20.361" viewBox="0 0 22 20.361">
  <path id="Path_98897" data-name="Path 98897" d="M9.4,16H3a2,2,0,0,1-2-2V11.9a2,2,0,0,1,.151-.762L4.245,3.619A1,1,0,0,1,5.17,3H22a1,1,0,0,1,1,1V14a1,1,0,0,1-1,1H18.518a1,1,0,0,0-.817.423l-5.453,7.726a.5.5,0,0,1-.632.159L9.8,22.4a2.5,2.5,0,0,1-1.3-2.853ZM17,13.413V5H5.839L3,11.9V14H9.4a2,2,0,0,1,1.938,2.493l-.9,3.548a.5.5,0,0,0,.261.571l.661.33,4.71-6.672A3,3,0,0,1,17,13.413ZM19,13h2V5H19Z" transform="translate(-1 -3)"/>
</svg>
