<svg xmlns="http://www.w3.org/2000/svg" width="30.856" height="25.208" viewBox="0 0 30.856 25.208">
  <g id="noun-villa-6880109" transform="translate(-3.5 -12.013)">
    <path id="Path_46" data-name="Path 46" d="M34.334,28.752a17.474,17.474,0,0,0-3.735-8.71,2.207,2.207,0,0,0-1.662-.747h0a2.218,2.218,0,0,0-1.662.744,15.107,15.107,0,0,0-2.634,4.534H21.757V23.115a1.915,1.915,0,0,0,.285.029,1.826,1.826,0,0,0,1.291-3.116l-6.859-6.859a3.945,3.945,0,0,0-3.3-1.124A4.149,4.149,0,0,0,10.8,13.266L8.5,15.56a.5.5,0,0,0,.7.7L11.5,13.97a3.155,3.155,0,0,1,1.8-.936,2.943,2.943,0,0,1,2.473.84l6.859,6.859a.825.825,0,0,1,.244.586.815.815,0,0,1-.244.586.849.849,0,0,1-1.173,0L14.6,15.046a1.31,1.31,0,0,0-1.826,0L5.911,21.9a.834.834,0,0,1-1.174,0,.824.824,0,0,1-.242-.586.815.815,0,0,1,.244-.586l1.949-1.949a.5.5,0,0,0-.7-.7L4.034,20.029A1.821,1.821,0,0,0,5.61,23.118v9.976A4.183,4.183,0,0,0,3.5,36.723a.5.5,0,0,0,.5.5H30.052a1.061,1.061,0,0,0,1.059-1.112l-.232-4.879c.516-.021,1.028-.047,1.526-.083a2.125,2.125,0,0,0,1.5-.791,2.084,2.084,0,0,0,.433-1.6Zm-12.576-.528h1.874c-.031.176-.07.35-.1.528a2.079,2.079,0,0,0,.433,1.6,2.125,2.125,0,0,0,1.5.791c.5.036,1.011.062,1.527.083l-.232,4.879c0,.039,0,.078.006.117H21.76v-8Zm2.534-2.654c-.174.54-.329,1.093-.46,1.659H21.758V25.57ZM6.616,22.611l6.859-6.86a.3.3,0,0,1,.209-.079.292.292,0,0,1,.21.08l6.859,6.859.009.008V27.23H6.606V22.62l.009-.008ZM4.535,36.223a3.191,3.191,0,0,1,6.3,0h-6.3Zm11.307,0H14.183V31.277h1.54a.12.12,0,0,1,.119.119Zm-2.654,0H11.839a4.182,4.182,0,0,0-.311-1.159V31.394a.12.12,0,0,1,.119-.119h1.54Zm3.65,0V31.4a1.116,1.116,0,0,0-1.115-1.115H11.648A1.116,1.116,0,0,0,10.533,31.4v2.268a4.141,4.141,0,0,0-3.926-.981V28.224H20.763v8H16.837Zm13.281-.07-.065.07H27.819l-.065-.07.233-4.9c.318.006.632.017.953.017s.631-.01.947-.017l.233,4.9Zm3.006-6.42a1.117,1.117,0,0,1-.791.419l-.1.005a8.205,8.205,0,0,0-.375-1.284,7.7,7.7,0,0,0-.617-1.268,7.675,7.675,0,0,1,.034,2.6,47.47,47.47,0,0,1-5.735-.058,1.127,1.127,0,0,1-.791-.419,1.06,1.06,0,0,1-.226-.833,16.662,16.662,0,0,1,3.5-8.2,1.228,1.228,0,0,1,1.826,0,16.681,16.681,0,0,1,3.5,8.2,1.068,1.068,0,0,1-.226.833Zm-20.8-4.547h2.713a.5.5,0,0,0,.5-.5V22.013a1.854,1.854,0,0,0-3.708,0v2.675a.5.5,0,0,0,.5.5Zm.5-3.173a.859.859,0,0,1,1.717,0v2.177H12.826ZM7.1,17.229a.5.5,0,1,1,1,0,.5.5,0,1,1-1,0Z" transform="translate(0)" fill="#eb6753"/>
  </g>
</svg>
